<svg version="1" xmlns="http://www.w3.org/2000/svg" width="426.667" height="426.667" viewBox="0 0 320.000000 320.000000"><path d="M34.5 1.4C18.3 5.4 4.6 19.6 1.1 35.8c-1.6 7.5-1.6 240.9 0 248.4 3.6 16.6 18.1 31.1 34.7 34.7 7.5 1.6 240.9 1.6 248.4 0 16.6-3.6 31.1-18.1 34.7-34.7 1.6-7.5 1.6-240.9 0-248.4-3.6-16.6-18.1-31.1-34.7-34.7-7.9-1.7-242.8-1.4-249.7.3zm151.7 44.5c26.2 6.9 44.7 21 56 42.8 1.8 3.4 3 6.3 2.8 6.6-.4.3-50.1 29.3-52.2 30.4-.4.2-1.9-2.1-3.4-5.2-5.6-11.3-15.7-17.7-27.9-17.7-11 0-16.7 3.9-16.7 11.7 0 7.9 5.7 11.4 31.1 19 28.4 8.6 40.6 14 53.6 23.7 15.4 11.6 22.5 29.5 21.2 53.3-1 17.7-6.7 31.5-17.7 42.6-11.6 11.7-28 19.3-49.2 22.5-13.3 2.1-37.5 1.3-49.9-1.5-29.8-6.8-50.5-22.8-61.3-47.3L70 221l2.3-1.4c1.2-.8 12.1-7.1 24.2-14.1s23.4-13.6 25.2-14.6l3.2-2 2.6 5.5c7.8 16.5 25.2 25.3 44.5 22.6 8.2-1.2 10-2 12.9-5.6 2.4-3 2.6-6.1.9-9.9-2.1-4.6-6.1-6.3-35.3-14.8-38.5-11.3-60.1-28.7-67.6-54.5-2.8-9.5-2.7-27 .1-37.2 7.5-26.9 30.8-46.2 61.5-51 9.9-1.5 32.8-.5 41.7 1.9z"/></svg>