<svg id="svg" version="1.1" xmlns="http://www.w3.org/2000/svg" xmlns:xlink="http://www.w3.org/1999/xlink" width="400" height="400" viewBox="0, 0, 400,400"><g id="svgg"><path id="path0" d="M191.000 54.012 C 185.275 54.461,179.103 55.197,177.800 55.586 C 177.140 55.783,175.790 56.065,174.800 56.212 C 173.272 56.439,168.928 57.505,164.200 58.811 C 130.029 68.256,104.009 98.722,101.180 132.600 C 100.445 141.395,100.849 154.437,101.990 158.783 C 102.194 159.563,102.748 161.806,103.220 163.768 C 103.693 165.730,104.227 167.710,104.407 168.168 C 104.588 168.626,105.038 169.990,105.408 171.200 C 106.347 174.270,111.344 184.234,113.160 186.654 C 113.512 187.123,114.070 187.913,114.400 188.410 C 124.151 203.071,142.439 216.452,165.600 225.874 C 171.125 228.121,180.741 231.427,186.800 233.163 C 188.450 233.635,190.340 234.180,191.000 234.373 C 193.466 235.095,197.884 236.331,200.400 237.002 C 209.331 239.384,217.587 241.998,220.660 243.418 C 221.354 243.738,222.036 244.000,222.177 244.000 C 222.318 244.000,223.629 244.559,225.091 245.243 C 235.879 250.286,236.720 262.989,226.626 268.398 C 219.974 271.963,202.133 273.080,192.800 270.517 C 181.805 267.498,176.526 264.586,169.789 257.825 C 164.471 252.489,161.666 248.272,157.624 239.532 C 156.152 236.351,155.470 236.393,149.800 240.023 C 149.140 240.446,148.330 240.912,148.000 241.060 C 147.401 241.328,137.138 247.278,136.000 248.016 C 135.670 248.230,135.130 248.529,134.800 248.680 C 134.470 248.831,131.374 250.629,127.920 252.677 C 124.466 254.725,121.556 256.400,121.454 256.400 C 121.352 256.400,118.083 258.290,114.191 260.600 C 110.298 262.910,107.031 264.800,106.932 264.800 C 106.832 264.800,104.376 266.208,101.475 267.929 C 98.574 269.650,95.930 271.182,95.600 271.333 C 95.270 271.485,94.460 271.953,93.800 272.373 C 93.140 272.793,91.658 273.629,90.507 274.230 C 87.252 275.931,87.508 277.518,92.776 288.306 C 93.449 289.685,94.000 290.892,94.000 290.988 C 94.000 292.843,103.491 305.790,109.215 311.745 C 114.892 317.650,129.090 328.800,130.932 328.800 C 131.043 328.800,132.504 329.610,134.178 330.600 C 135.853 331.590,137.290 332.400,137.372 332.400 C 137.454 332.400,139.096 333.135,141.022 334.033 C 144.112 335.474,147.553 336.859,152.497 338.651 C 155.185 339.626,162.441 341.566,168.600 342.957 C 172.630 343.867,175.353 344.263,187.200 345.658 C 193.298 346.376,215.343 346.383,221.600 345.668 C 236.692 343.943,243.755 342.489,254.600 338.872 C 258.956 337.419,260.600 336.761,265.878 334.363 C 266.801 333.943,267.644 333.600,267.751 333.600 C 269.105 333.600,282.670 324.493,286.756 320.842 C 293.089 315.181,296.253 311.638,300.087 305.914 C 312.183 287.852,316.863 260.073,311.765 236.600 C 310.067 228.783,308.813 225.171,305.375 218.200 C 298.808 204.885,286.728 194.110,267.194 184.142 C 260.532 180.743,249.283 176.000,247.883 176.000 C 247.595 176.000,247.189 175.854,246.980 175.676 C 246.771 175.498,243.630 174.393,240.000 173.221 C 236.370 172.049,232.770 170.869,232.000 170.598 C 231.230 170.328,229.520 169.791,228.200 169.405 C 226.880 169.020,224.990 168.461,224.000 168.164 C 223.010 167.867,221.300 167.363,220.200 167.044 C 214.282 165.332,211.672 164.521,206.400 162.755 C 192.776 158.193,188.089 155.979,184.733 152.523 C 181.652 149.349,181.000 147.686,181.001 143.000 C 181.002 134.491,186.520 129.531,197.258 128.386 C 214.757 126.521,228.611 134.485,237.198 151.344 C 238.079 153.074,238.801 154.694,238.802 154.944 C 238.803 155.195,239.208 155.888,239.702 156.485 L 240.600 157.569 244.200 155.352 C 246.180 154.133,248.340 152.874,249.000 152.555 C 249.660 152.236,250.740 151.623,251.400 151.193 C 252.060 150.763,252.960 150.230,253.400 150.007 C 253.840 149.784,254.470 149.427,254.800 149.212 C 255.130 148.998,258.820 146.832,263.000 144.400 C 267.180 141.968,270.870 139.802,271.200 139.588 C 271.530 139.373,272.160 139.016,272.600 138.793 C 273.040 138.570,273.940 138.033,274.600 137.598 C 275.260 137.164,276.070 136.685,276.400 136.533 C 276.966 136.273,297.917 124.005,299.200 123.183 C 299.530 122.971,300.160 122.616,300.600 122.393 C 301.040 122.170,301.940 121.633,302.600 121.200 C 303.260 120.767,304.194 120.238,304.676 120.025 C 306.080 119.405,306.540 118.179,305.853 116.892 C 305.532 116.292,304.558 114.360,303.688 112.600 C 302.817 110.840,301.734 108.770,301.279 108.000 C 300.825 107.230,300.061 105.880,299.583 105.000 C 291.180 89.549,273.418 73.559,255.400 65.225 C 249.203 62.358,249.492 62.472,241.800 59.881 C 232.609 56.785,225.289 55.328,212.200 53.990 C 208.134 53.574,196.424 53.586,191.000 54.012 " stroke="none" fill="#fbfbfb" fill-rule="evenodd"></path><path id="path1" d="M43.200 0.400 C 43.200 0.626,42.067 0.800,40.600 0.800 C 38.556 0.800,38.000 0.928,38.000 1.400 C 38.000 1.800,37.600 2.000,36.800 2.000 C 36.000 2.000,35.600 2.200,35.600 2.600 C 35.600 3.044,35.133 3.200,33.800 3.200 C 32.467 3.200,32.000 3.356,32.000 3.800 C 32.000 4.201,31.599 4.400,30.787 4.400 C 30.079 4.400,29.479 4.649,29.345 5.000 C 29.213 5.342,28.617 5.600,27.957 5.600 C 27.195 5.600,26.800 5.805,26.800 6.200 C 26.800 6.530,26.530 6.800,26.200 6.800 C 25.870 6.800,25.600 7.070,25.600 7.400 C 25.600 7.800,25.200 8.000,24.400 8.000 C 23.641 8.000,23.200 8.205,23.200 8.557 C 23.200 8.864,22.930 9.218,22.600 9.345 C 22.270 9.471,22.000 9.851,22.000 10.187 C 22.000 10.524,21.730 10.800,21.400 10.800 C 21.070 10.800,20.800 11.070,20.800 11.400 C 20.800 11.730,20.524 12.000,20.187 12.000 C 19.851 12.000,19.471 12.270,19.345 12.600 C 19.213 12.942,18.617 13.200,17.957 13.200 C 17.195 13.200,16.800 13.405,16.800 13.800 C 16.800 14.130,16.530 14.400,16.200 14.400 C 15.870 14.400,15.600 14.670,15.600 15.000 C 15.600 15.330,15.330 15.600,15.000 15.600 C 14.670 15.600,14.400 15.870,14.400 16.200 C 14.400 16.530,14.130 16.800,13.800 16.800 C 13.405 16.800,13.200 17.195,13.200 17.957 C 13.200 18.617,12.942 19.213,12.600 19.345 C 12.270 19.471,12.000 19.851,12.000 20.187 C 12.000 20.524,11.730 20.800,11.400 20.800 C 11.070 20.800,10.800 21.070,10.800 21.400 C 10.800 21.730,10.524 22.000,10.187 22.000 C 9.851 22.000,9.471 22.270,9.345 22.600 C 9.218 22.930,8.864 23.200,8.557 23.200 C 8.205 23.200,8.000 23.641,8.000 24.400 C 8.000 25.200,7.800 25.600,7.400 25.600 C 7.070 25.600,6.800 25.870,6.800 26.200 C 6.800 26.530,6.530 26.800,6.200 26.800 C 5.805 26.800,5.600 27.195,5.600 27.957 C 5.600 28.617,5.342 29.213,5.000 29.345 C 4.649 29.479,4.400 30.079,4.400 30.787 C 4.400 31.599,4.201 32.000,3.800 32.000 C 3.356 32.000,3.200 32.467,3.200 33.800 C 3.200 35.133,3.044 35.600,2.600 35.600 C 2.200 35.600,2.000 36.000,2.000 36.800 C 2.000 37.600,1.800 38.000,1.400 38.000 C 0.928 38.000,0.800 38.556,0.800 40.600 C 0.800 42.067,0.626 43.200,0.400 43.200 C 0.134 43.200,0.000 95.733,0.000 200.000 C 0.000 304.267,0.134 356.800,0.400 356.800 C 0.626 356.800,0.800 357.933,0.800 359.400 C 0.800 361.444,0.928 362.000,1.400 362.000 C 1.800 362.000,2.000 362.400,2.000 363.200 C 2.000 364.000,2.200 364.400,2.600 364.400 C 3.044 364.400,3.200 364.867,3.200 366.200 C 3.200 367.533,3.356 368.000,3.800 368.000 C 4.195 368.000,4.400 368.395,4.400 369.157 C 4.400 369.817,4.658 370.413,5.000 370.545 C 5.351 370.679,5.600 371.279,5.600 371.987 C 5.600 372.799,5.799 373.200,6.200 373.200 C 6.530 373.200,6.800 373.470,6.800 373.800 C 6.800 374.130,7.070 374.400,7.400 374.400 C 7.800 374.400,8.000 374.800,8.000 375.600 C 8.000 376.359,8.205 376.800,8.557 376.800 C 8.864 376.800,9.218 377.070,9.345 377.400 C 9.471 377.730,9.851 378.000,10.187 378.000 C 10.524 378.000,10.800 378.270,10.800 378.600 C 10.800 378.930,11.070 379.200,11.400 379.200 C 11.730 379.200,12.000 379.476,12.000 379.813 C 12.000 380.149,12.270 380.529,12.600 380.655 C 12.942 380.787,13.200 381.383,13.200 382.043 C 13.200 382.805,13.405 383.200,13.800 383.200 C 14.130 383.200,14.400 383.470,14.400 383.800 C 14.400 384.130,14.670 384.400,15.000 384.400 C 15.330 384.400,15.600 384.670,15.600 385.000 C 15.600 385.330,15.870 385.600,16.200 385.600 C 16.530 385.600,16.800 385.870,16.800 386.200 C 16.800 386.595,17.195 386.800,17.957 386.800 C 18.617 386.800,19.213 387.058,19.345 387.400 C 19.471 387.730,19.851 388.000,20.187 388.000 C 20.524 388.000,20.800 388.270,20.800 388.600 C 20.800 388.930,21.070 389.200,21.400 389.200 C 21.730 389.200,22.000 389.476,22.000 389.813 C 22.000 390.149,22.270 390.529,22.600 390.655 C 22.930 390.782,23.200 391.136,23.200 391.443 C 23.200 391.795,23.641 392.000,24.400 392.000 C 25.200 392.000,25.600 392.200,25.600 392.600 C 25.600 392.930,25.870 393.200,26.200 393.200 C 26.530 393.200,26.800 393.470,26.800 393.800 C 26.800 394.201,27.201 394.400,28.013 394.400 C 28.721 394.400,29.321 394.649,29.455 395.000 C 29.587 395.342,30.183 395.600,30.843 395.600 C 31.605 395.600,32.000 395.805,32.000 396.200 C 32.000 396.644,32.467 396.800,33.800 396.800 C 35.133 396.800,35.600 396.956,35.600 397.400 C 35.600 397.800,36.000 398.000,36.800 398.000 C 37.600 398.000,38.000 398.200,38.000 398.600 C 38.000 399.072,38.556 399.200,40.600 399.200 C 42.067 399.200,43.200 399.374,43.200 399.600 C 43.200 399.866,95.733 400.000,200.000 400.000 C 304.267 400.000,356.800 399.866,356.800 399.600 C 356.800 399.374,357.933 399.200,359.400 399.200 C 361.444 399.200,362.000 399.072,362.000 398.600 C 362.000 398.200,362.400 398.000,363.200 398.000 C 364.000 398.000,364.400 397.800,364.400 397.400 C 364.400 396.956,364.867 396.800,366.200 396.800 C 367.533 396.800,368.000 396.644,368.000 396.200 C 368.000 395.799,368.401 395.600,369.213 395.600 C 369.921 395.600,370.521 395.351,370.655 395.000 C 370.787 394.658,371.383 394.400,372.043 394.400 C 372.805 394.400,373.200 394.195,373.200 393.800 C 373.200 393.470,373.470 393.200,373.800 393.200 C 374.130 393.200,374.400 392.930,374.400 392.600 C 374.400 392.200,374.800 392.000,375.600 392.000 C 376.359 392.000,376.800 391.795,376.800 391.443 C 376.800 391.136,377.070 390.782,377.400 390.655 C 377.730 390.529,378.000 390.149,378.000 389.813 C 378.000 389.476,378.270 389.200,378.600 389.200 C 378.930 389.200,379.200 388.930,379.200 388.600 C 379.200 388.270,379.476 388.000,379.813 388.000 C 380.149 388.000,380.529 387.730,380.655 387.400 C 380.787 387.058,381.383 386.800,382.043 386.800 C 382.805 386.800,383.200 386.595,383.200 386.200 C 383.200 385.870,383.470 385.600,383.800 385.600 C 384.130 385.600,384.400 385.330,384.400 385.000 C 384.400 384.670,384.670 384.400,385.000 384.400 C 385.330 384.400,385.600 384.130,385.600 383.800 C 385.600 383.470,385.870 383.200,386.200 383.200 C 386.595 383.200,386.800 382.805,386.800 382.043 C 386.800 381.383,387.058 380.787,387.400 380.655 C 387.730 380.529,388.000 380.149,388.000 379.813 C 388.000 379.476,388.270 379.200,388.600 379.200 C 388.930 379.200,389.200 378.930,389.200 378.600 C 389.200 378.270,389.476 378.000,389.813 378.000 C 390.149 378.000,390.529 377.730,390.655 377.400 C 390.782 377.070,391.136 376.800,391.443 376.800 C 391.795 376.800,392.000 376.359,392.000 375.600 C 392.000 374.800,392.200 374.400,392.600 374.400 C 392.930 374.400,393.200 374.130,393.200 373.800 C 393.200 373.470,393.470 373.200,393.800 373.200 C 394.195 373.200,394.400 372.805,394.400 372.043 C 394.400 371.383,394.658 370.787,395.000 370.655 C 395.351 370.521,395.600 369.921,395.600 369.213 C 395.600 368.401,395.799 368.000,396.200 368.000 C 396.644 368.000,396.800 367.533,396.800 366.200 C 396.800 364.867,396.956 364.400,397.400 364.400 C 397.800 364.400,398.000 364.000,398.000 363.200 C 398.000 362.400,398.200 362.000,398.600 362.000 C 399.072 362.000,399.200 361.444,399.200 359.400 C 399.200 357.933,399.374 356.800,399.600 356.800 C 399.866 356.800,400.000 304.267,400.000 200.000 C 400.000 95.733,399.866 43.200,399.600 43.200 C 399.374 43.200,399.200 42.067,399.200 40.600 C 399.200 38.556,399.072 38.000,398.600 38.000 C 398.200 38.000,398.000 37.600,398.000 36.800 C 398.000 36.000,397.800 35.600,397.400 35.600 C 396.956 35.600,396.800 35.133,396.800 33.800 C 396.800 32.467,396.644 32.000,396.200 32.000 C 395.805 32.000,395.600 31.605,395.600 30.843 C 395.600 30.183,395.342 29.587,395.000 29.455 C 394.649 29.321,394.400 28.721,394.400 28.013 C 394.400 27.201,394.201 26.800,393.800 26.800 C 393.470 26.800,393.200 26.530,393.200 26.200 C 393.200 25.870,392.930 25.600,392.600 25.600 C 392.200 25.600,392.000 25.200,392.000 24.400 C 392.000 23.641,391.795 23.200,391.443 23.200 C 391.136 23.200,390.782 22.930,390.655 22.600 C 390.529 22.270,390.149 22.000,389.813 22.000 C 389.476 22.000,389.200 21.730,389.200 21.400 C 389.200 21.070,388.930 20.800,388.600 20.800 C 388.270 20.800,388.000 20.524,388.000 20.187 C 388.000 19.851,387.730 19.471,387.400 19.345 C 387.058 19.213,386.800 18.617,386.800 17.957 C 386.800 17.195,386.595 16.800,386.200 16.800 C 385.870 16.800,385.600 16.530,385.600 16.200 C 385.600 15.870,385.330 15.600,385.000 15.600 C 384.670 15.600,384.400 15.330,384.400 15.000 C 384.400 14.670,384.130 14.400,383.800 14.400 C 383.470 14.400,383.200 14.130,383.200 13.800 C 383.200 13.405,382.805 13.200,382.043 13.200 C 381.383 13.200,380.787 12.942,380.655 12.600 C 380.529 12.270,380.149 12.000,379.813 12.000 C 379.476 12.000,379.200 11.730,379.200 11.400 C 379.200 11.070,378.930 10.800,378.600 10.800 C 378.270 10.800,378.000 10.524,378.000 10.187 C 378.000 9.851,377.730 9.471,377.400 9.345 C 377.070 9.218,376.800 8.864,376.800 8.557 C 376.800 8.205,376.359 8.000,375.600 8.000 C 374.800 8.000,374.400 7.800,374.400 7.400 C 374.400 7.070,374.130 6.800,373.800 6.800 C 373.470 6.800,373.200 6.530,373.200 6.200 C 373.200 5.799,372.799 5.600,371.987 5.600 C 371.279 5.600,370.679 5.351,370.545 5.000 C 370.413 4.658,369.817 4.400,369.157 4.400 C 368.395 4.400,368.000 4.195,368.000 3.800 C 368.000 3.356,367.533 3.200,366.200 3.200 C 364.867 3.200,364.400 3.044,364.400 2.600 C 364.400 2.200,364.000 2.000,363.200 2.000 C 362.400 2.000,362.000 1.800,362.000 1.400 C 362.000 0.928,361.444 0.800,359.400 0.800 C 357.933 0.800,356.800 0.626,356.800 0.400 C 356.800 0.134,304.267 0.000,200.000 0.000 C 95.733 0.000,43.200 0.134,43.200 0.400 M212.200 53.990 C 225.289 55.328,232.609 56.785,241.800 59.881 C 249.492 62.472,249.203 62.358,255.400 65.225 C 273.418 73.559,291.180 89.549,299.583 105.000 C 300.061 105.880,300.825 107.230,301.279 108.000 C 301.734 108.770,302.817 110.840,303.688 112.600 C 304.558 114.360,305.532 116.292,305.853 116.892 C 306.540 118.179,306.080 119.405,304.676 120.025 C 304.194 120.238,303.260 120.767,302.600 121.200 C 301.940 121.633,301.040 122.170,300.600 122.393 C 300.160 122.616,299.530 122.971,299.200 123.183 C 297.917 124.005,276.966 136.273,276.400 136.533 C 276.070 136.685,275.260 137.164,274.600 137.598 C 273.940 138.033,273.040 138.570,272.600 138.793 C 272.160 139.016,271.530 139.373,271.200 139.588 C 270.870 139.802,267.180 141.968,263.000 144.400 C 258.820 146.832,255.130 148.998,254.800 149.212 C 254.470 149.427,253.840 149.784,253.400 150.007 C 252.960 150.230,252.060 150.763,251.400 151.193 C 250.740 151.623,249.660 152.236,249.000 152.555 C 248.340 152.874,246.180 154.133,244.200 155.352 L 240.600 157.569 239.702 156.485 C 239.208 155.888,238.803 155.195,238.802 154.944 C 238.800 154.507,236.128 149.058,235.102 147.400 C 224.632 130.476,203.660 123.099,188.200 130.901 C 179.992 135.044,178.259 145.854,184.733 152.523 C 188.089 155.979,192.776 158.193,206.400 162.755 C 211.672 164.521,214.282 165.332,220.200 167.044 C 221.300 167.363,223.010 167.867,224.000 168.164 C 224.990 168.461,226.880 169.020,228.200 169.405 C 229.520 169.791,231.230 170.328,232.000 170.598 C 232.770 170.869,236.370 172.049,240.000 173.221 C 243.630 174.393,246.771 175.498,246.980 175.676 C 247.189 175.854,247.595 176.000,247.883 176.000 C 248.366 176.000,253.934 178.069,257.200 179.463 C 277.032 187.923,292.898 199.202,300.888 210.519 C 304.726 215.954,308.855 224.890,310.537 231.400 C 315.577 250.908,314.611 271.955,307.794 291.200 C 304.953 299.221,297.195 311.126,290.981 317.000 C 287.490 320.300,283.536 323.672,281.200 325.342 C 278.717 327.116,268.158 333.600,267.751 333.600 C 267.644 333.600,266.801 333.943,265.878 334.363 C 260.600 336.761,258.956 337.419,254.600 338.872 C 243.755 342.489,236.692 343.943,221.600 345.668 C 215.343 346.383,193.298 346.376,187.200 345.658 C 175.353 344.263,172.630 343.867,168.600 342.957 C 162.441 341.566,155.185 339.626,152.497 338.651 C 147.553 336.859,144.112 335.474,141.022 334.033 C 139.096 333.135,137.454 332.400,137.372 332.400 C 137.290 332.400,135.853 331.590,134.178 330.600 C 132.504 329.610,131.043 328.800,130.932 328.800 C 129.090 328.800,114.892 317.650,109.215 311.745 C 103.491 305.790,94.000 292.843,94.000 290.988 C 94.000 290.892,93.449 289.685,92.776 288.306 C 87.508 277.518,87.252 275.931,90.507 274.230 C 91.658 273.629,93.140 272.793,93.800 272.373 C 94.460 271.953,95.270 271.485,95.600 271.333 C 95.930 271.182,98.574 269.650,101.475 267.929 C 104.376 266.208,106.832 264.800,106.932 264.800 C 107.031 264.800,110.298 262.910,114.191 260.600 C 118.083 258.290,121.352 256.400,121.454 256.400 C 121.556 256.400,124.466 254.725,127.920 252.677 C 131.374 250.629,134.470 248.831,134.800 248.680 C 135.130 248.529,135.670 248.230,136.000 248.016 C 137.138 247.278,147.401 241.328,148.000 241.060 C 148.330 240.912,149.140 240.446,149.800 240.023 C 155.470 236.393,156.152 236.351,157.624 239.532 C 161.666 248.272,164.471 252.489,169.789 257.825 C 176.526 264.586,181.805 267.498,192.800 270.517 C 202.133 273.080,219.974 271.963,226.626 268.398 C 236.720 262.989,235.879 250.286,225.091 245.243 C 223.629 244.559,222.318 244.000,222.177 244.000 C 222.036 244.000,221.354 243.738,220.660 243.418 C 217.587 241.998,209.331 239.384,200.400 237.002 C 197.884 236.331,193.466 235.095,191.000 234.373 C 190.340 234.180,188.450 233.635,186.800 233.163 C 153.054 223.498,127.043 207.419,114.400 188.410 C 114.070 187.913,113.512 187.123,113.160 186.654 C 111.344 184.234,106.347 174.270,105.408 171.200 C 105.038 169.990,104.588 168.626,104.407 168.168 C 104.227 167.710,103.693 165.730,103.220 163.768 C 102.748 161.806,102.194 159.563,101.990 158.783 C 99.037 147.538,100.952 124.844,105.992 111.347 C 115.165 86.782,138.191 66.000,164.200 58.811 C 168.928 57.505,173.272 56.439,174.800 56.212 C 175.790 56.065,177.140 55.783,177.800 55.586 C 179.103 55.197,185.275 54.461,191.000 54.012 C 196.424 53.586,208.134 53.574,212.200 53.990 " stroke="none" fill="#d47c54" fill-rule="evenodd"></path></g></svg>