<svg xmlns="http://www.w3.org/2000/svg" width="400" height="400"><g fill-rule="evenodd"><path fill="#fbfbfb" d="M191 54.012c-5.725.449-11.897 1.185-13.2 1.574-.66.197-2.01.479-3 .626-1.528.227-5.872 1.293-10.6 2.599-34.171 9.445-60.191 39.911-63.02 73.789-.735 8.795-.331 21.837.81 26.183.204.78.758 3.023 1.23 4.985.473 1.962 1.007 3.942 1.187 4.4.181.458.631 1.822 1.001 3.032.939 3.07 5.936 13.034 7.752 15.454.352.469.91 1.259 1.24 1.756 9.751 14.661 28.039 28.042 51.2 37.464 5.525 2.247 15.141 5.553 21.2 7.289 1.65.472 3.54 1.017 4.2 1.21 2.466.722 6.884 1.958 9.4 2.629 8.931 2.382 17.187 4.996 20.26 6.416.694.32 1.376.582 1.517.582.141 0 1.452.559 2.914 1.243 10.788 5.043 11.629 17.746 1.535 23.155-6.652 3.565-24.493 4.682-33.826 2.119-10.995-3.019-16.274-5.931-23.011-12.692-5.318-5.336-8.123-9.553-12.165-18.293-1.472-3.181-2.154-3.139-7.824.491-.66.423-1.47.889-1.8 1.037-.599.268-10.862 6.218-12 6.956-.33.214-.87.513-1.2.664-.33.151-3.426 1.949-6.88 3.997-3.454 2.048-6.364 3.723-6.466 3.723-.102 0-3.371 1.89-7.263 4.2-3.893 2.31-7.16 4.2-7.259 4.2-.1 0-2.556 1.408-5.457 3.129s-5.545 3.253-5.875 3.404c-.33.152-1.14.62-1.8 1.04-.66.42-2.142 1.256-3.293 1.857-3.255 1.701-2.999 3.288 2.269 14.076.673 1.379 1.224 2.586 1.224 2.682 0 1.855 9.491 14.802 15.215 20.757 5.677 5.905 19.875 17.055 21.717 17.055.111 0 1.572.81 3.246 1.8 1.675.99 3.112 1.8 3.194 1.8.082 0 1.724.735 3.65 1.633 3.09 1.441 6.531 2.826 11.475 4.618 2.688.975 9.944 2.915 16.103 4.306 4.03.91 6.753 1.306 18.6 2.701 6.098.718 28.143.725 34.4.01 15.092-1.725 22.155-3.179 33-6.796 4.356-1.453 6-2.111 11.278-4.509.923-.42 1.766-.763 1.873-.763 1.354 0 14.919-9.107 19.005-12.758 6.333-5.661 9.497-9.204 13.331-14.928 12.096-18.062 16.776-45.841 11.678-69.314-1.698-7.817-2.952-11.429-6.39-18.4-6.567-13.315-18.647-24.09-38.181-34.058-6.662-3.399-17.911-8.142-19.311-8.142-.288 0-.694-.146-.903-.324-.209-.178-3.35-1.283-6.98-2.455-3.63-1.172-7.23-2.352-8-2.623-.77-.27-2.48-.807-3.8-1.193-1.32-.385-3.21-.944-4.2-1.241-.99-.297-2.7-.801-3.8-1.12-5.918-1.712-8.528-2.523-13.8-4.289-13.624-4.562-18.311-6.776-21.667-10.232-3.081-3.174-3.733-4.837-3.732-9.523.001-8.509 5.519-13.469 16.257-14.614 17.499-1.865 31.353 6.099 39.94 22.958.881 1.73 1.603 3.35 1.604 3.6.001.251.406.944.9 1.541l.898 1.084 3.6-2.217c1.98-1.219 4.14-2.478 4.8-2.797.66-.319 1.74-.932 2.4-1.362.66-.43 1.56-.963 2-1.186.44-.223 1.07-.58 1.4-.795.33-.214 4.02-2.38 8.2-4.812 4.18-2.432 7.87-4.598 8.2-4.812.33-.215.96-.572 1.4-.795.44-.223 1.34-.76 2-1.195.66-.434 1.47-.913 1.8-1.065.566-.26 21.517-12.528 22.8-13.35.33-.212.96-.567 1.4-.79.44-.223 1.34-.76 2-1.193.66-.433 1.594-.962 2.076-1.175 1.404-.62 1.864-1.846 1.177-3.133-.321-.6-1.295-2.532-2.165-4.292-.871-1.76-1.954-3.83-2.409-4.6-.454-.77-1.218-2.12-1.696-3-8.403-15.451-26.165-31.441-44.183-39.775-6.197-2.867-5.908-2.753-13.6-5.344-9.191-3.096-16.511-4.553-29.6-5.891-4.066-.416-15.776-.404-21.2.022"/><path fill="#d47c54" d="M43.2.4c0 .226-1.133.4-2.6.4-2.044 0-2.6.128-2.6.6 0 .4-.4.6-1.2.6-.8 0-1.2.2-1.2.6 0 .444-.467.6-1.8.6s-1.8.156-1.8.6c0 .401-.401.6-1.213.6-.708 0-1.308.249-1.442.6-.132.342-.728.6-1.388.6-.762 0-1.157.205-1.157.6 0 .33-.27.6-.6.6-.33 0-.6.27-.6.6 0 .4-.4.6-1.2.6-.759 0-1.2.205-1.2.557 0 .307-.27.661-.6.788-.33.126-.6.506-.6.842 0 .337-.27.613-.6.613-.33 0-.6.27-.6.6 0 .33-.276.6-.613.6-.336 0-.716.27-.842.6-.132.342-.728.6-1.388.6-.762 0-1.157.205-1.157.6 0 .33-.27.6-.6.6-.33 0-.6.27-.6.6 0 .33-.27.6-.6.6-.33 0-.6.27-.6.6 0 .33-.27.6-.6.6-.395 0-.6.395-.6 1.157 0 .66-.258 1.256-.6 1.388-.33.126-.6.506-.6.842 0 .337-.27.613-.6.613-.33 0-.6.27-.6.6 0 .33-.276.6-.613.6-.336 0-.716.27-.842.6-.127.33-.481.6-.788.6-.352 0-.557.441-.557 1.2 0 .8-.2 1.2-.6 1.2-.33 0-.6.27-.6.6 0 .33-.27.6-.6.6-.395 0-.6.395-.6 1.157 0 .66-.258 1.256-.6 1.388-.351.134-.6.734-.6 1.442 0 .812-.199 1.213-.6 1.213-.444 0-.6.467-.6 1.8s-.156 1.8-.6 1.8c-.4 0-.6.4-.6 1.2 0 .8-.2 1.2-.6 1.2-.472 0-.6.556-.6 2.6 0 1.467-.174 2.6-.4 2.6C.134 43.2 0 95.733 0 200c0 104.267.134 156.8.4 156.8.226 0 .4 1.133.4 2.6 0 2.044.128 2.6.6 2.6.4 0 .6.4.6 1.2 0 .8.2 1.2.6 1.2.444 0 .6.467.6 1.8s.156 1.8.6 1.8c.395 0 .6.395.6 1.157 0 .66.258 1.256.6 1.388.351.134.6.734.6 1.442 0 .812.199 1.213.6 1.213.33 0 .6.27.6.6 0 .33.27.6.6.6.4 0 .6.4.6 1.2 0 .759.205 1.2.557 1.2.307 0 .661.27.788.6.126.33.506.6.842.6.337 0 .613.27.613.6 0 .33.27.6.6.6.33 0 .6.276.6.613 0 .336.27.716.6.842.342.132.6.728.6 1.388 0 .762.205 1.157.6 1.157.33 0 .6.27.6.6 0 .33.27.6.6.6.33 0 .6.27.6.6 0 .33.27.6.6.6.33 0 .6.27.6.6 0 .395.395.6 1.157.6.66 0 1.256.258 1.388.6.126.33.506.6.842.6.337 0 .613.27.613.6 0 .33.27.6.6.6.33 0 .6.276.6.613 0 .336.27.716.6.842.33.127.6.481.6.788 0 .352.441.557 1.2.557.8 0 1.2.2 1.2.6 0 .33.27.6.6.6.33 0 .6.27.6.6 0 .401.401.6 1.213.6.708 0 1.308.249 1.442.6.132.342.728.6 1.388.6.762 0 1.157.205 1.157.6 0 .444.467.6 1.8.6s1.8.156 1.8.6c0 .4.4.6 1.2.6.8 0 1.2.2 1.2.6 0 .472.556.6 2.6.6 1.467 0 2.6.174 2.6.4 0 .266 52.533.4 156.8.4 104.267 0 156.8-.134 156.8-.4 0-.226 1.133-.4 2.6-.4 2.044 0 2.6-.128 2.6-.6 0-.4.4-.6 1.2-.6.8 0 1.2-.2 1.2-.6 0-.444.467-.6 1.8-.6s1.8-.156 1.8-.6c0-.401.401-.6 1.213-.6.708 0 1.308-.249 1.442-.6.132-.342.728-.6 1.388-.6.762 0 1.157-.205 1.157-.6 0-.33.27-.6.6-.6.33 0 .6-.27.6-.6 0-.4.4-.6 1.2-.6.759 0 1.2-.205 1.2-.557 0-.307.27-.661.6-.788.33-.126.6-.506.6-.842 0-.337.27-.613.6-.613.33 0 .6-.27.6-.6 0-.33.276-.6.613-.6.336 0 .716-.27.842-.6.132-.342.728-.6 1.388-.6.762 0 1.157-.205 1.157-.6 0-.33.27-.6.6-.6.33 0 .6-.27.6-.6 0-.33.27-.6.6-.6.33 0 .6-.27.6-.6 0-.33.27-.6.6-.6.395 0 .6-.395.6-1.157 0-.66.258-1.256.6-1.388.33-.126.6-.506.6-.842 0-.337.27-.613.6-.613.33 0 .6-.27.6-.6 0-.33.276-.6.613-.6.336 0 .716-.27.842-.6.127-.33.481-.6.788-.6.352 0 .557-.441.557-1.2 0-.8.2-1.2.6-1.2.33 0 .6-.27.6-.6 0-.33.27-.6.6-.6.395 0 .6-.395.6-1.157 0-.66.258-1.256.6-1.388.351-.134.6-.734.6-1.442 0-.812.199-1.213.6-1.213.444 0 .6-.467.6-1.8s.156-1.8.6-1.8c.4 0 .6-.4.6-1.2 0-.8.2-1.2.6-1.2.472 0 .6-.556.6-2.6 0-1.467.174-2.6.4-2.6.266 0 .4-52.533.4-156.8 0-104.267-.134-156.8-.4-156.8-.226 0-.4-1.133-.4-2.6 0-2.044-.128-2.6-.6-2.6-.4 0-.6-.4-.6-1.2 0-.8-.2-1.2-.6-1.2-.444 0-.6-.467-.6-1.8s-.156-1.8-.6-1.8c-.395 0-.6-.395-.6-1.157 0-.66-.258-1.256-.6-1.388-.351-.134-.6-.734-.6-1.442 0-.812-.199-1.213-.6-1.213-.33 0-.6-.27-.6-.6 0-.33-.27-.6-.6-.6-.4 0-.6-.4-.6-1.2 0-.759-.205-1.2-.557-1.2-.307 0-.661-.27-.788-.6-.126-.33-.506-.6-.842-.6-.337 0-.613-.27-.613-.6 0-.33-.27-.6-.6-.6-.33 0-.6-.276-.6-.613 0-.336-.27-.716-.6-.842-.342-.132-.6-.728-.6-1.388 0-.762-.205-1.157-.6-1.157-.33 0-.6-.27-.6-.6 0-.33-.27-.6-.6-.6-.33 0-.6-.27-.6-.6 0-.33-.27-.6-.6-.6-.33 0-.6-.27-.6-.6 0-.395-.395-.6-1.157-.6-.66 0-1.256-.258-1.388-.6-.126-.33-.506-.6-.842-.6-.337 0-.613-.27-.613-.6 0-.33-.27-.6-.6-.6-.33 0-.6-.276-.6-.613 0-.336-.27-.716-.6-.842-.33-.127-.6-.481-.6-.788 0-.352-.441-.557-1.2-.557-.8 0-1.2-.2-1.2-.6 0-.33-.27-.6-.6-.6-.33 0-.6-.27-.6-.6 0-.401-.401-.6-1.213-.6-.708 0-1.308-.249-1.442-.6-.132-.342-.728-.6-1.388-.6-.762 0-1.157-.205-1.157-.6 0-.444-.467-.6-1.8-.6s-1.8-.156-1.8-.6c0-.4-.4-.6-1.2-.6-.8 0-1.2-.2-1.2-.6 0-.472-.556-.6-2.6-.6-1.467 0-2.6-.174-2.6-.4 0-.266-52.533-.4-156.8-.4C95.733 0 43.2.134 43.2.4m169 53.59c13.089 1.338 20.409 2.795 29.6 5.891 7.692 2.591 7.403 2.477 13.6 5.344 18.018 8.334 35.78 24.324 44.183 39.775.478.88 1.242 2.23 1.696 3 .455.77 1.538 2.84 2.409 4.6.87 1.76 1.844 3.692 2.165 4.292.687 1.287.227 2.513-1.177 3.133-.482.213-1.416.742-2.076 1.175-.66.433-1.56.97-2 1.193-.44.223-1.07.578-1.4.79-1.283.822-22.234 13.09-22.8 13.35-.33.152-1.14.631-1.8 1.065-.66.435-1.56.972-2 1.195-.44.223-1.07.58-1.4.795-.33.214-4.02 2.38-8.2 4.812-4.18 2.432-7.87 4.598-8.2 4.812-.33.215-.96.572-1.4.795-.44.223-1.34.756-2 1.186-.66.43-1.74 1.043-2.4 1.362-.66.319-2.82 1.578-4.8 2.797l-3.6 2.217-.898-1.084c-.494-.597-.899-1.29-.9-1.541-.002-.437-2.674-5.886-3.7-7.544-10.47-16.924-31.442-24.301-46.902-16.499-8.208 4.143-9.941 14.953-3.467 21.622 3.356 3.456 8.043 5.67 21.667 10.232 5.272 1.766 7.882 2.577 13.8 4.289 1.1.319 2.81.823 3.8 1.12.99.297 2.88.856 4.2 1.241 1.32.386 3.03.923 3.8 1.193.77.271 4.37 1.451 8 2.623 3.63 1.172 6.771 2.277 6.98 2.455.209.178.615.324.903.324.483 0 6.051 2.069 9.317 3.463 19.832 8.46 35.698 19.739 43.688 31.056 3.838 5.435 7.967 14.371 9.649 20.881 5.04 19.508 4.074 40.555-2.743 59.8-2.841 8.021-10.599 19.926-16.813 25.8-3.491 3.3-7.445 6.672-9.781 8.342-2.483 1.774-13.042 8.258-13.449 8.258-.107 0-.95.343-1.873.763-5.278 2.398-6.922 3.056-11.278 4.509-10.845 3.617-17.908 5.071-33 6.796-6.257.715-28.302.708-34.4-.01-11.847-1.395-14.57-1.791-18.6-2.701-6.159-1.391-13.415-3.331-16.103-4.306-4.944-1.792-8.385-3.177-11.475-4.618-1.926-.898-3.568-1.633-3.65-1.633-.082 0-1.519-.81-3.194-1.8-1.674-.99-3.135-1.8-3.246-1.8-1.842 0-16.04-11.15-21.717-17.055C103.491 305.79 94 292.843 94 290.988c0-.096-.551-1.303-1.224-2.682-5.268-10.788-5.524-12.375-2.269-14.076 1.151-.601 2.633-1.437 3.293-1.857.66-.42 1.47-.888 1.8-1.04.33-.151 2.974-1.683 5.875-3.404 2.901-1.721 5.357-3.129 5.457-3.129.099 0 3.366-1.89 7.259-4.2 3.892-2.31 7.161-4.2 7.263-4.2.102 0 3.012-1.675 6.466-3.723s6.55-3.846 6.88-3.997c.33-.151.87-.45 1.2-.664 1.138-.738 11.401-6.688 12-6.956.33-.148 1.14-.614 1.8-1.037 5.67-3.63 6.352-3.672 7.824-.491 4.042 8.74 6.847 12.957 12.165 18.293 6.737 6.761 12.016 9.673 23.011 12.692 9.333 2.563 27.174 1.446 33.826-2.119 10.094-5.409 9.253-18.112-1.535-23.155-1.462-.684-2.773-1.243-2.914-1.243-.141 0-.823-.262-1.517-.582-3.073-1.42-11.329-4.034-20.26-6.416-2.516-.671-6.934-1.907-9.4-2.629-.66-.193-2.55-.738-4.2-1.21-33.746-9.665-59.757-25.744-72.4-44.753-.33-.497-.888-1.287-1.24-1.756-1.816-2.42-6.813-12.384-7.752-15.454-.37-1.21-.82-2.574-1.001-3.032-.18-.458-.714-2.438-1.187-4.4-.472-1.962-1.026-4.205-1.23-4.985-2.953-11.245-1.038-33.939 4.002-47.436C115.165 86.782 138.191 66 164.2 58.811c4.728-1.306 9.072-2.372 10.6-2.599.99-.147 2.34-.429 3-.626 1.303-.389 7.475-1.125 13.2-1.574 5.424-.426 17.134-.438 21.2-.022"/></g></svg>