<svg xmlns:svg="http://www.w3.org/2000/svg" xmlns="http://www.w3.org/2000/svg" width="400" height="400" version="1">
  <rect width="400" height="400" x="0" y="0" ry="50" fill="#d47c54"/>
  <path d="m241 158c-11-28-36-35-54-26-5 4-5 7-5 11 0 4 1 8 6 13 18 9 39 14 58 20 18 7 35 14 49 27 13 12 26 43 13 87-13 40-58 53-89 56-62 3-110-15-132-69L156 237c6 12 12 29 43 35 8 1 33 1 36-13 1-10-8-15-14-16-7-2-19-6-33-10-26-7-51-19-65-36-18-20-25-45-18-76 9-35 33-56 71-64 58-11 110 14 132 62z" fill="#fbfbfb"/>
</svg>
